<?xml version="1.0" encoding="UTF-8" standalone="no"?>
<!-- Created with Inkscape (http://www.inkscape.org/) -->

<svg
   xmlns:dc="http://purl.org/dc/elements/1.1/"
   xmlns:cc="http://creativecommons.org/ns#"
   xmlns:rdf="http://www.w3.org/1999/02/22-rdf-syntax-ns#"
   xmlns:svg="http://www.w3.org/2000/svg"
   xmlns="http://www.w3.org/2000/svg"
   xmlns:sodipodi="http://sodipodi.sourceforge.net/DTD/sodipodi-0.dtd"
   xmlns:inkscape="http://www.inkscape.org/namespaces/inkscape"
   width="793.70081"
   height="1122.5197"
   viewBox="0 0 210 297"
   version="1.1"
   id="svg8"
   sodipodi:docname="icon.svg"
   inkscape:version="0.92.2 5c3e80d, 2017-08-06">
  <defs
     id="defs2" />
  <sodipodi:namedview
     id="base"
     pagecolor="#ffffff"
     bordercolor="#666666"
     borderopacity="1.0"
     inkscape:pageopacity="0.0"
     inkscape:pageshadow="2"
     inkscape:zoom="0.1767767"
     inkscape:cx="1431.1246"
     inkscape:cy="-179.63507"
     inkscape:document-units="px"
     inkscape:current-layer="layer1"
     showgrid="false"
     inkscape:window-width="1440"
     inkscape:window-height="855"
     inkscape:window-x="0"
     inkscape:window-y="1"
     inkscape:window-maximized="1"
     inkscape:snap-text-baseline="false"
     units="px" />
  <metadata
     id="metadata5">
    <rdf:RDF>
      <cc:Work
         rdf:about="">
        <dc:format>image/svg+xml</dc:format>
        <dc:type
           rdf:resource="http://purl.org/dc/dcmitype/StillImage" />
        <dc:title />
      </cc:Work>
    </rdf:RDF>
  </metadata>
  <g
     inkscape:label="Layer 1"
     inkscape:groupmode="layer"
     id="layer1">
    <g
       id="g4894"
       transform="matrix(0.31999929,0,0,0.31999929,-48.13126,84.35527)">
      <rect
         y="364.54034"
         x="550.07629"
         height="26.458334"
         width="26.458334"
         id="rect4890"
         style="fill:#4a9abf;fill-opacity:1;stroke:none;stroke-width:0.25570804;stroke-miterlimit:4;stroke-dasharray:none;stroke-opacity:1" />
      <path
         inkscape:connector-curvature="0"
         id="path3728-1-8-3-1"
         d="m 557.50552,364.54036 v 2.7067 l 6.1113,0.0388 v 4.19909 h -10.35013 l 0.0256,-6.93144 -3.21353,-0.0125 -6e-4,11.60989 h 20.01627 l 0.0644,-5.62841 h 4.13755 l -0.0131,16.15084 h -4.14943 l -0.0394,-6.29835 h -12.60207 l -0.0644,6.29835 h -4.12505 l -0.0256,-6.29835 h -3.201 v 10.62371 h 11.61427 l 0.0519,-5.28654 h 4.11192 l 0.065,5.28654 h 10.61521 v -26.45832 z"
         style="fill:#ffffff;fill-opacity:1;stroke:none;stroke-width:0.96012056;stroke-miterlimit:4;stroke-dasharray:none;stroke-opacity:1" />
    </g>
    <path
       style="fill:#9dceea;stroke-width:0.07833715"
       d="m 17.539229,77.10794 v 52.81523 0 0 h 52.91667 V 77.10794 Z"
       id="path3728"
       inkscape:connector-curvature="0"
       sodipodi:nodetypes="ccccccc" />
    <path
       style="fill:#4a9abf;stroke-width:0.07862799"
       d="m 17.675089,76.98128 v 52.91664 h 52.91665 l 2e-5,-52.91663 z m 4.67837,4.67837 h 43.55991 v 18.39895 l -8.40145,0.0786 v 5.03219 l 8.40145,0.0786 v 19.9715 h -18.39896 v -6.60475 l 9.99751,-0.0389 v -5.03208 l -9.99751,-0.11834 V 91.88129 l 9.99751,-0.0506 v -5.07151 l -24.14356,-0.0281 v 5.0715 l 8.95661,0.0786 v 33.33826 h -19.97151 v -6.60475 l 11.0149,0.0223 c 0,0 0.009,-9.95225 0,-14.92817 h -5.13749 l -0.0588,9.71645 h -5.81847 z"
       id="path3873"
       inkscape:connector-curvature="0"
       sodipodi:nodetypes="cccccccccccccccccccccccccccccccc" />
    <g
       id="g4741"
       transform="matrix(0.26458332,0,0,0.26458332,-35.047431,-8.2868298)">
      <path
         sodipodi:nodetypes="ccccccc"
         inkscape:connector-curvature="0"
         id="path3728-1"
         d="m 455.0273,324.06002 v 200 0 0 h 200 v -200 z"
         style="fill:#ddedf8;fill-opacity:1;stroke-width:0.2963616" />
      <path
         sodipodi:nodetypes="cccccccccccccccccccccccccccccccc"
         inkscape:connector-curvature="0"
         id="path3873-1"
         d="m 455.02729,324.06002 v 200 H 655.0272 l 9e-5,-199.99998 z m 17.68202,17.68202 h 164.63588 v 69.53939 l -31.75347,0.29717 v 19.01932 l 31.75347,0.29718 v 75.48292 h -69.53935 v -24.96286 l 37.78588,-0.14708 v -19.01932 l -37.78588,-0.44727 v -81.42646 l 37.78588,-0.19104 v -19.1679 l -91.25128,-0.10615 v 19.16791 l 33.85176,0.29718 v 126.00299 h -75.48288 v -24.96286 l 41.63112,0.0841 c 0,0 0.0329,-37.61479 0,-56.42145 h -19.41732 l -0.22213,36.72365 h -21.99108 z"
         style="fill:#4a9abf;stroke-width:0.29717675" />
    </g>
    <g
       id="g4823"
       transform="matrix(1.9999925,0,0,1.9999925,-855.93796,-427.28497)">
      <path
         sodipodi:nodetypes="ccccccc"
         inkscape:connector-curvature="0"
         id="path3728-1-8"
         d="m 484.35118,314.14763 h -4.23333 v 0 0 4.23333 h 4.23333 z"
         style="fill:#d6eeff;fill-opacity:1;stroke-width:0.00627298" />
      <path
         sodipodi:nodetypes="cccccccccccccccccccccccccccccccc"
         inkscape:connector-curvature="0"
         id="path3873-1-4"
         d="m 484.35118,314.14763 h -4.23333 v 4.23333 h 4.23333 z m -0.37427,0.37427 v 3.48479 H 482.505 l -0.007,-0.67211 h -0.40258 l -0.006,0.67211 h -1.59772 v -1.47191 h 0.52837 l 0.003,0.7998 h 0.40257 l 0.009,-0.7998 h 1.72353 l 0.005,0.7998 h 0.40571 l 0.002,-1.93149 h -0.40573 l -0.006,0.71653 h -2.66706 v -1.59772 h 0.52837 l -0.002,0.88119 c 0,0 0.79618,7e-4 1.19426,0 v -0.41099 l -0.77733,-0.005 v -0.46548 z"
         style="fill:#4a9abf;stroke-width:0.00629023" />
    </g>
    <g
       id="g4829"
       transform="matrix(1.9999925,0,0,1.9999925,-872.07108,-427.89397)"
       style="fill:#4a9abf;fill-opacity:1;stroke:none;stroke-width:0.14824103;stroke-miterlimit:4;stroke-dasharray:none;stroke-opacity:1">
      <path
         inkscape:connector-curvature="0"
         id="path3728-1-8-3"
         d="m 464.58571,314.45213 v 1.94091 h 3.23866 l 0.008,-0.87004 h 0.4926 l -0.002,2.3458 h -0.49261 l -0.006,-0.97173 h -2.09279 l -0.0107,0.97173 h -0.48884 l -0.004,-0.97173 h -0.64198 v 1.78839 h 1.94033 l 0.008,-0.81666 h 0.48885 l 0.008,0.81666 h 1.78781 v -4.23333 h -3.08617 v 0.56558 l 0.94381,0.006 v 0.49967 h -1.45023 l 0.003,-1.07087 z"
         style="fill:#4a9abf;fill-opacity:1;stroke:none;stroke-width:0.14824103;stroke-miterlimit:4;stroke-dasharray:none;stroke-opacity:1"
         sodipodi:nodetypes="ccccccccccccccccccccccccccc" />
    </g>
    <g
       id="g4826"
       transform="matrix(1.9999925,0,0,1.9999925,-860.35772,-428.11315)">
      <path
         sodipodi:nodetypes="cccccccccccccccccccccccccccccccc"
         inkscape:connector-curvature="0"
         id="path3873-1-4-3"
         d="m 474.76171,314.56172 h -4.23333 v 4.23333 h 4.23333 z m -0.37427,0.37427 v 3.48479 h -1.47191 l -0.007,-0.67211 h -0.40258 l -0.006,0.67211 h -1.59772 v -1.47191 h 0.52837 l 0.003,0.7998 h 0.40257 l 0.009,-0.7998 h 1.72353 l 0.005,0.7998 h 0.40571 l 0.002,-1.93149 h -0.40573 l -0.006,0.71653 h -2.66706 v -1.59772 h 0.52837 l -0.002,0.88119 c 0,0 0.79618,7e-4 1.19426,0 v -0.41099 l -0.7773,-0.005 v -0.46548 z"
         style="fill:#4a9abf;stroke-width:0.00629023" />
    </g>
    <path
       style="fill:#4a9abf;fill-opacity:1;stroke:none;stroke-width:0.30723831;stroke-miterlimit:4;stroke-dasharray:none;stroke-opacity:1"
       d="m 153.86843,201.00835 v 0.86614 l 1.95562,0.012 v 1.34371 h -3.31203 l 0.008,-2.21805 -1.02832,-0.004 -2e-4,3.71515 h 6.40521 l 0.0206,-1.8011 h 1.32401 l -0.004,5.16827 h -1.32781 l -0.012,-2.01547 h -4.03266 l -0.0206,2.01547 h -1.32001 l -0.008,-2.01547 h -1.02432 v 3.39959 h 3.71657 l 0.016,-1.6917 h 1.31582 l 0.0208,1.6917 h 3.39685 v -8.46666 z"
       id="path3728-1-8-3-1-4"
       inkscape:connector-curvature="0"
       inkscape:export-xdpi="96"
       inkscape:export-ydpi="96" />
  </g>
</svg>
